<mxfile host="app.diagrams.net" agent="Mozilla/5.0 (Windows NT 10.0; Win64; x64) AppleWebKit/537.36 (KHTML, like Gecko) Chrome/127.0.0.0 Safari/537.36" version="24.7.7">
  <diagram name="Sayfa -1" id="FQ3HczwszNK9C4hyPvSr">
    <mxGraphModel dx="2261" dy="1949" grid="1" gridSize="10" guides="1" tooltips="1" connect="1" arrows="1" fold="1" page="1" pageScale="1" pageWidth="827" pageHeight="1169" math="0" shadow="0">
      <root>
        <mxCell id="0" />
        <mxCell id="1" parent="0" />
        <mxCell id="8TtQOPB3-Rzr3YMKRfKf-92" style="edgeStyle=orthogonalEdgeStyle;rounded=0;orthogonalLoop=1;jettySize=auto;html=1;exitX=0.75;exitY=1;exitDx=0;exitDy=0;entryX=0;entryY=0.5;entryDx=0;entryDy=0;fillColor=#dae8fc;strokeColor=#6c8ebf;" edge="1" parent="1" source="8TtQOPB3-Rzr3YMKRfKf-1" target="8TtQOPB3-Rzr3YMKRfKf-91">
          <mxGeometry relative="1" as="geometry" />
        </mxCell>
        <mxCell id="8TtQOPB3-Rzr3YMKRfKf-1" value="User" style="rounded=0;whiteSpace=wrap;html=1;" vertex="1" parent="1">
          <mxGeometry x="250" y="390" width="150" height="80" as="geometry" />
        </mxCell>
        <mxCell id="8TtQOPB3-Rzr3YMKRfKf-3" value="Username" style="ellipse;whiteSpace=wrap;html=1;" vertex="1" parent="1">
          <mxGeometry y="10" width="120" height="80" as="geometry" />
        </mxCell>
        <mxCell id="8TtQOPB3-Rzr3YMKRfKf-5" value="" style="endArrow=classic;html=1;rounded=0;entryX=0.25;entryY=0.888;entryDx=0;entryDy=0;entryPerimeter=0;" edge="1" parent="1" source="8TtQOPB3-Rzr3YMKRfKf-1" target="8TtQOPB3-Rzr3YMKRfKf-3">
          <mxGeometry width="50" height="50" relative="1" as="geometry">
            <mxPoint x="390" y="430" as="sourcePoint" />
            <mxPoint x="440" y="380" as="targetPoint" />
          </mxGeometry>
        </mxCell>
        <mxCell id="8TtQOPB3-Rzr3YMKRfKf-6" value="Email" style="ellipse;whiteSpace=wrap;html=1;" vertex="1" parent="1">
          <mxGeometry x="170" y="10" width="120" height="80" as="geometry" />
        </mxCell>
        <mxCell id="8TtQOPB3-Rzr3YMKRfKf-7" value="Adress" style="ellipse;whiteSpace=wrap;html=1;" vertex="1" parent="1">
          <mxGeometry x="330" y="10" width="120" height="80" as="geometry" />
        </mxCell>
        <mxCell id="8TtQOPB3-Rzr3YMKRfKf-8" value="UserID" style="ellipse;whiteSpace=wrap;html=1;" vertex="1" parent="1">
          <mxGeometry x="-170" y="130" width="120" height="80" as="geometry" />
        </mxCell>
        <mxCell id="8TtQOPB3-Rzr3YMKRfKf-14" value="Products" style="rounded=0;whiteSpace=wrap;html=1;" vertex="1" parent="1">
          <mxGeometry x="549" y="370" width="150" height="80" as="geometry" />
        </mxCell>
        <mxCell id="8TtQOPB3-Rzr3YMKRfKf-15" value="Name" style="ellipse;whiteSpace=wrap;html=1;" vertex="1" parent="1">
          <mxGeometry x="750" y="-30" width="120" height="80" as="geometry" />
        </mxCell>
        <mxCell id="8TtQOPB3-Rzr3YMKRfKf-16" value="" style="endArrow=classic;html=1;rounded=0;entryX=0.25;entryY=0.888;entryDx=0;entryDy=0;entryPerimeter=0;" edge="1" parent="1" source="8TtQOPB3-Rzr3YMKRfKf-14" target="8TtQOPB3-Rzr3YMKRfKf-15">
          <mxGeometry width="50" height="50" relative="1" as="geometry">
            <mxPoint x="1060" y="400" as="sourcePoint" />
            <mxPoint x="1110" y="350" as="targetPoint" />
          </mxGeometry>
        </mxCell>
        <mxCell id="8TtQOPB3-Rzr3YMKRfKf-17" value="Description" style="ellipse;whiteSpace=wrap;html=1;" vertex="1" parent="1">
          <mxGeometry x="950" y="-20" width="120" height="80" as="geometry" />
        </mxCell>
        <mxCell id="8TtQOPB3-Rzr3YMKRfKf-18" value="CategoryID" style="ellipse;whiteSpace=wrap;html=1;" vertex="1" parent="1">
          <mxGeometry x="1100" y="30" width="120" height="80" as="geometry" />
        </mxCell>
        <mxCell id="8TtQOPB3-Rzr3YMKRfKf-19" value="ProductID" style="ellipse;whiteSpace=wrap;html=1;" vertex="1" parent="1">
          <mxGeometry x="564" y="-20" width="120" height="80" as="geometry" />
        </mxCell>
        <mxCell id="8TtQOPB3-Rzr3YMKRfKf-21" value="" style="endArrow=classic;html=1;rounded=0;entryX=0.25;entryY=0.9;entryDx=0;entryDy=0;entryPerimeter=0;exitX=0.907;exitY=0.025;exitDx=0;exitDy=0;exitPerimeter=0;" edge="1" parent="1" source="8TtQOPB3-Rzr3YMKRfKf-14" target="8TtQOPB3-Rzr3YMKRfKf-17">
          <mxGeometry width="50" height="50" relative="1" as="geometry">
            <mxPoint x="390" y="430" as="sourcePoint" />
            <mxPoint x="440" y="380" as="targetPoint" />
          </mxGeometry>
        </mxCell>
        <mxCell id="8TtQOPB3-Rzr3YMKRfKf-22" value="" style="endArrow=classic;html=1;rounded=0;entryX=0;entryY=1;entryDx=0;entryDy=0;exitX=0.973;exitY=0.363;exitDx=0;exitDy=0;exitPerimeter=0;" edge="1" parent="1" source="8TtQOPB3-Rzr3YMKRfKf-14" target="8TtQOPB3-Rzr3YMKRfKf-18">
          <mxGeometry width="50" height="50" relative="1" as="geometry">
            <mxPoint x="390" y="330" as="sourcePoint" />
            <mxPoint x="440" y="280" as="targetPoint" />
          </mxGeometry>
        </mxCell>
        <mxCell id="8TtQOPB3-Rzr3YMKRfKf-23" value="" style="endArrow=classic;html=1;rounded=0;exitX=0.25;exitY=0;exitDx=0;exitDy=0;" edge="1" parent="1" source="8TtQOPB3-Rzr3YMKRfKf-14" target="8TtQOPB3-Rzr3YMKRfKf-19">
          <mxGeometry width="50" height="50" relative="1" as="geometry">
            <mxPoint x="780" y="240" as="sourcePoint" />
            <mxPoint x="710" y="160" as="targetPoint" />
          </mxGeometry>
        </mxCell>
        <mxCell id="8TtQOPB3-Rzr3YMKRfKf-98" style="edgeStyle=orthogonalEdgeStyle;rounded=0;orthogonalLoop=1;jettySize=auto;html=1;exitX=0.75;exitY=1;exitDx=0;exitDy=0;entryX=0;entryY=0.5;entryDx=0;entryDy=0;fillColor=#dae8fc;strokeColor=#6c8ebf;" edge="1" parent="1" source="8TtQOPB3-Rzr3YMKRfKf-24" target="8TtQOPB3-Rzr3YMKRfKf-97">
          <mxGeometry relative="1" as="geometry" />
        </mxCell>
        <mxCell id="8TtQOPB3-Rzr3YMKRfKf-24" value="Orders" style="rounded=0;whiteSpace=wrap;html=1;" vertex="1" parent="1">
          <mxGeometry x="100" y="585" width="150" height="80" as="geometry" />
        </mxCell>
        <mxCell id="8TtQOPB3-Rzr3YMKRfKf-25" value="OrderDate" style="ellipse;whiteSpace=wrap;html=1;" vertex="1" parent="1">
          <mxGeometry x="-240" y="540" width="120" height="80" as="geometry" />
        </mxCell>
        <mxCell id="8TtQOPB3-Rzr3YMKRfKf-26" value="" style="endArrow=classic;html=1;rounded=0;entryX=0.5;entryY=1;entryDx=0;entryDy=0;" edge="1" parent="1" source="8TtQOPB3-Rzr3YMKRfKf-24" target="8TtQOPB3-Rzr3YMKRfKf-25">
          <mxGeometry width="50" height="50" relative="1" as="geometry">
            <mxPoint x="330" y="850" as="sourcePoint" />
            <mxPoint x="380" y="800" as="targetPoint" />
          </mxGeometry>
        </mxCell>
        <mxCell id="8TtQOPB3-Rzr3YMKRfKf-27" value="TotalAmount" style="ellipse;whiteSpace=wrap;html=1;" vertex="1" parent="1">
          <mxGeometry x="-170" y="440" width="120" height="80" as="geometry" />
        </mxCell>
        <mxCell id="8TtQOPB3-Rzr3YMKRfKf-28" value="UserID" style="ellipse;whiteSpace=wrap;html=1;" vertex="1" parent="1">
          <mxGeometry x="-250" y="690" width="120" height="80" as="geometry" />
        </mxCell>
        <mxCell id="8TtQOPB3-Rzr3YMKRfKf-29" value="" style="endArrow=classic;html=1;rounded=0;exitX=0.907;exitY=0.025;exitDx=0;exitDy=0;exitPerimeter=0;entryX=0.7;entryY=0.913;entryDx=0;entryDy=0;entryPerimeter=0;" edge="1" parent="1" source="8TtQOPB3-Rzr3YMKRfKf-24" target="8TtQOPB3-Rzr3YMKRfKf-27">
          <mxGeometry width="50" height="50" relative="1" as="geometry">
            <mxPoint x="-340" y="880" as="sourcePoint" />
            <mxPoint x="-70" y="510" as="targetPoint" />
          </mxGeometry>
        </mxCell>
        <mxCell id="8TtQOPB3-Rzr3YMKRfKf-30" value="" style="endArrow=classic;html=1;rounded=0;exitX=0;exitY=1;exitDx=0;exitDy=0;" edge="1" parent="1" source="8TtQOPB3-Rzr3YMKRfKf-24" target="8TtQOPB3-Rzr3YMKRfKf-28">
          <mxGeometry width="50" height="50" relative="1" as="geometry">
            <mxPoint x="-340" y="780" as="sourcePoint" />
            <mxPoint x="-20" y="610" as="targetPoint" />
          </mxGeometry>
        </mxCell>
        <mxCell id="8TtQOPB3-Rzr3YMKRfKf-33" value="OrderID" style="ellipse;whiteSpace=wrap;html=1;" vertex="1" parent="1">
          <mxGeometry x="-170" y="820" width="120" height="80" as="geometry" />
        </mxCell>
        <mxCell id="8TtQOPB3-Rzr3YMKRfKf-34" value="" style="endArrow=classic;html=1;rounded=0;exitX=0.25;exitY=1;exitDx=0;exitDy=0;" edge="1" parent="1" source="8TtQOPB3-Rzr3YMKRfKf-24" target="8TtQOPB3-Rzr3YMKRfKf-33">
          <mxGeometry width="50" height="50" relative="1" as="geometry">
            <mxPoint x="270" y="610" as="sourcePoint" />
            <mxPoint x="320" y="560" as="targetPoint" />
          </mxGeometry>
        </mxCell>
        <mxCell id="8TtQOPB3-Rzr3YMKRfKf-105" style="edgeStyle=orthogonalEdgeStyle;rounded=0;orthogonalLoop=1;jettySize=auto;html=1;exitX=0;exitY=0;exitDx=0;exitDy=0;entryX=0;entryY=0.5;entryDx=0;entryDy=0;fillColor=#dae8fc;strokeColor=#6c8ebf;" edge="1" parent="1" source="8TtQOPB3-Rzr3YMKRfKf-35" target="8TtQOPB3-Rzr3YMKRfKf-104">
          <mxGeometry relative="1" as="geometry" />
        </mxCell>
        <mxCell id="8TtQOPB3-Rzr3YMKRfKf-35" value="Category" style="rounded=0;whiteSpace=wrap;html=1;" vertex="1" parent="1">
          <mxGeometry x="760" y="590" width="150" height="80" as="geometry" />
        </mxCell>
        <mxCell id="8TtQOPB3-Rzr3YMKRfKf-39" value="CategoryName&amp;nbsp;" style="ellipse;whiteSpace=wrap;html=1;" vertex="1" parent="1">
          <mxGeometry x="1130" y="700" width="120" height="80" as="geometry" />
        </mxCell>
        <mxCell id="8TtQOPB3-Rzr3YMKRfKf-41" value="" style="endArrow=classic;html=1;rounded=0;exitX=0.84;exitY=1;exitDx=0;exitDy=0;exitPerimeter=0;" edge="1" parent="1" source="8TtQOPB3-Rzr3YMKRfKf-35" target="8TtQOPB3-Rzr3YMKRfKf-39">
          <mxGeometry width="50" height="50" relative="1" as="geometry">
            <mxPoint x="470" y="780" as="sourcePoint" />
            <mxPoint x="790" y="610" as="targetPoint" />
          </mxGeometry>
        </mxCell>
        <mxCell id="8TtQOPB3-Rzr3YMKRfKf-42" value="CategoryID" style="ellipse;whiteSpace=wrap;html=1;" vertex="1" parent="1">
          <mxGeometry x="1190" y="480" width="120" height="80" as="geometry" />
        </mxCell>
        <mxCell id="8TtQOPB3-Rzr3YMKRfKf-43" value="" style="endArrow=classic;html=1;rounded=0;exitX=1;exitY=0.25;exitDx=0;exitDy=0;" edge="1" parent="1" source="8TtQOPB3-Rzr3YMKRfKf-35" target="8TtQOPB3-Rzr3YMKRfKf-42">
          <mxGeometry width="50" height="50" relative="1" as="geometry">
            <mxPoint x="1080" y="610" as="sourcePoint" />
            <mxPoint x="1130" y="560" as="targetPoint" />
          </mxGeometry>
        </mxCell>
        <mxCell id="8TtQOPB3-Rzr3YMKRfKf-44" value="OrderDetails" style="rounded=0;whiteSpace=wrap;html=1;" vertex="1" parent="1">
          <mxGeometry x="155" y="860" width="150" height="80" as="geometry" />
        </mxCell>
        <mxCell id="8TtQOPB3-Rzr3YMKRfKf-45" value="ProductID" style="ellipse;whiteSpace=wrap;html=1;" vertex="1" parent="1">
          <mxGeometry x="-130" y="1110" width="120" height="80" as="geometry" />
        </mxCell>
        <mxCell id="8TtQOPB3-Rzr3YMKRfKf-46" value="" style="endArrow=classic;html=1;rounded=0;entryX=0.725;entryY=0.988;entryDx=0;entryDy=0;entryPerimeter=0;exitX=0;exitY=0.75;exitDx=0;exitDy=0;" edge="1" parent="1" source="8TtQOPB3-Rzr3YMKRfKf-44" target="8TtQOPB3-Rzr3YMKRfKf-45">
          <mxGeometry width="50" height="50" relative="1" as="geometry">
            <mxPoint x="420" y="1310" as="sourcePoint" />
            <mxPoint x="470" y="1260" as="targetPoint" />
          </mxGeometry>
        </mxCell>
        <mxCell id="8TtQOPB3-Rzr3YMKRfKf-47" value="QEntity" style="ellipse;whiteSpace=wrap;html=1;" vertex="1" parent="1">
          <mxGeometry x="-140" y="990" width="120" height="80" as="geometry" />
        </mxCell>
        <mxCell id="8TtQOPB3-Rzr3YMKRfKf-48" value="OrderID" style="ellipse;whiteSpace=wrap;html=1;" vertex="1" parent="1">
          <mxGeometry x="-110" y="1230" width="120" height="80" as="geometry" />
        </mxCell>
        <mxCell id="8TtQOPB3-Rzr3YMKRfKf-49" value="" style="endArrow=classic;html=1;rounded=0;entryX=0.5;entryY=1;entryDx=0;entryDy=0;exitX=0;exitY=0;exitDx=0;exitDy=0;" edge="1" parent="1" source="8TtQOPB3-Rzr3YMKRfKf-44" target="8TtQOPB3-Rzr3YMKRfKf-47">
          <mxGeometry width="50" height="50" relative="1" as="geometry">
            <mxPoint x="-250" y="1340" as="sourcePoint" />
            <mxPoint x="-200" y="1290" as="targetPoint" />
          </mxGeometry>
        </mxCell>
        <mxCell id="8TtQOPB3-Rzr3YMKRfKf-50" value="" style="endArrow=classic;html=1;rounded=0;exitX=0;exitY=1;exitDx=0;exitDy=0;entryX=1;entryY=0;entryDx=0;entryDy=0;" edge="1" parent="1" source="8TtQOPB3-Rzr3YMKRfKf-44" target="8TtQOPB3-Rzr3YMKRfKf-48">
          <mxGeometry width="50" height="50" relative="1" as="geometry">
            <mxPoint x="-250" y="1240" as="sourcePoint" />
            <mxPoint x="70" y="1070" as="targetPoint" />
          </mxGeometry>
        </mxCell>
        <mxCell id="8TtQOPB3-Rzr3YMKRfKf-51" value="OrderDetail" style="ellipse;whiteSpace=wrap;html=1;" vertex="1" parent="1">
          <mxGeometry x="10" y="1280" width="120" height="80" as="geometry" />
        </mxCell>
        <mxCell id="8TtQOPB3-Rzr3YMKRfKf-52" value="" style="endArrow=classic;html=1;rounded=0;exitX=0.25;exitY=1;exitDx=0;exitDy=0;" edge="1" parent="1" source="8TtQOPB3-Rzr3YMKRfKf-44" target="8TtQOPB3-Rzr3YMKRfKf-51">
          <mxGeometry width="50" height="50" relative="1" as="geometry">
            <mxPoint x="360" y="1070" as="sourcePoint" />
            <mxPoint x="410" y="1020" as="targetPoint" />
          </mxGeometry>
        </mxCell>
        <mxCell id="8TtQOPB3-Rzr3YMKRfKf-53" value="Rewiews" style="rounded=0;whiteSpace=wrap;html=1;" vertex="1" parent="1">
          <mxGeometry x="720" y="830" width="150" height="80" as="geometry" />
        </mxCell>
        <mxCell id="8TtQOPB3-Rzr3YMKRfKf-54" value="RewiewID" style="ellipse;whiteSpace=wrap;html=1;" vertex="1" parent="1">
          <mxGeometry x="1070" y="890" width="120" height="80" as="geometry" />
        </mxCell>
        <mxCell id="8TtQOPB3-Rzr3YMKRfKf-55" value="" style="endArrow=classic;html=1;rounded=0;entryX=0.25;entryY=0.888;entryDx=0;entryDy=0;entryPerimeter=0;exitX=1;exitY=0.5;exitDx=0;exitDy=0;" edge="1" parent="1" source="8TtQOPB3-Rzr3YMKRfKf-53" target="8TtQOPB3-Rzr3YMKRfKf-54">
          <mxGeometry width="50" height="50" relative="1" as="geometry">
            <mxPoint x="1310" y="1320" as="sourcePoint" />
            <mxPoint x="1360" y="1270" as="targetPoint" />
          </mxGeometry>
        </mxCell>
        <mxCell id="8TtQOPB3-Rzr3YMKRfKf-56" value="ProductID" style="ellipse;whiteSpace=wrap;html=1;" vertex="1" parent="1">
          <mxGeometry x="1200" y="980" width="120" height="80" as="geometry" />
        </mxCell>
        <mxCell id="8TtQOPB3-Rzr3YMKRfKf-57" value="Rating" style="ellipse;whiteSpace=wrap;html=1;" vertex="1" parent="1">
          <mxGeometry x="910" y="1270" width="120" height="80" as="geometry" />
        </mxCell>
        <mxCell id="8TtQOPB3-Rzr3YMKRfKf-58" value="" style="endArrow=classic;html=1;rounded=0;entryX=0.008;entryY=0.588;entryDx=0;entryDy=0;entryPerimeter=0;exitX=1;exitY=0.75;exitDx=0;exitDy=0;" edge="1" parent="1" source="8TtQOPB3-Rzr3YMKRfKf-53" target="8TtQOPB3-Rzr3YMKRfKf-56">
          <mxGeometry width="50" height="50" relative="1" as="geometry">
            <mxPoint x="640" y="1350" as="sourcePoint" />
            <mxPoint x="690" y="1300" as="targetPoint" />
          </mxGeometry>
        </mxCell>
        <mxCell id="8TtQOPB3-Rzr3YMKRfKf-59" value="" style="endArrow=classic;html=1;rounded=0;exitX=0;exitY=1;exitDx=0;exitDy=0;" edge="1" parent="1" source="8TtQOPB3-Rzr3YMKRfKf-53" target="8TtQOPB3-Rzr3YMKRfKf-57">
          <mxGeometry width="50" height="50" relative="1" as="geometry">
            <mxPoint x="640" y="1250" as="sourcePoint" />
            <mxPoint x="960" y="1080" as="targetPoint" />
          </mxGeometry>
        </mxCell>
        <mxCell id="8TtQOPB3-Rzr3YMKRfKf-60" value="UserID" style="ellipse;whiteSpace=wrap;html=1;" vertex="1" parent="1">
          <mxGeometry x="1160" y="1230" width="120" height="80" as="geometry" />
        </mxCell>
        <mxCell id="8TtQOPB3-Rzr3YMKRfKf-61" value="" style="endArrow=classic;html=1;rounded=0;exitX=0.25;exitY=1;exitDx=0;exitDy=0;" edge="1" parent="1" source="8TtQOPB3-Rzr3YMKRfKf-53" target="8TtQOPB3-Rzr3YMKRfKf-60">
          <mxGeometry width="50" height="50" relative="1" as="geometry">
            <mxPoint x="1250" y="1080" as="sourcePoint" />
            <mxPoint x="1300" y="1030" as="targetPoint" />
          </mxGeometry>
        </mxCell>
        <mxCell id="8TtQOPB3-Rzr3YMKRfKf-63" value="Adress" style="ellipse;whiteSpace=wrap;html=1;" vertex="1" parent="1">
          <mxGeometry x="-210" y="270" width="120" height="80" as="geometry" />
        </mxCell>
        <mxCell id="8TtQOPB3-Rzr3YMKRfKf-65" value="Price" style="ellipse;whiteSpace=wrap;html=1;" vertex="1" parent="1">
          <mxGeometry x="1070" y="180" width="120" height="80" as="geometry" />
        </mxCell>
        <mxCell id="8TtQOPB3-Rzr3YMKRfKf-66" value="" style="endArrow=classic;html=1;rounded=0;entryX=0;entryY=0.5;entryDx=0;entryDy=0;exitX=1.013;exitY=0.613;exitDx=0;exitDy=0;exitPerimeter=0;" edge="1" parent="1" source="8TtQOPB3-Rzr3YMKRfKf-14" target="8TtQOPB3-Rzr3YMKRfKf-65">
          <mxGeometry width="50" height="50" relative="1" as="geometry">
            <mxPoint x="780" y="440" as="sourcePoint" />
            <mxPoint x="440" y="280" as="targetPoint" />
          </mxGeometry>
        </mxCell>
        <mxCell id="8TtQOPB3-Rzr3YMKRfKf-67" value="Stock" style="ellipse;whiteSpace=wrap;html=1;" vertex="1" parent="1">
          <mxGeometry x="1040" y="330" width="120" height="80" as="geometry" />
        </mxCell>
        <mxCell id="8TtQOPB3-Rzr3YMKRfKf-68" value="" style="endArrow=classic;html=1;rounded=0;entryX=0;entryY=0.5;entryDx=0;entryDy=0;exitX=1;exitY=1;exitDx=0;exitDy=0;" edge="1" parent="1" source="8TtQOPB3-Rzr3YMKRfKf-14" target="8TtQOPB3-Rzr3YMKRfKf-67">
          <mxGeometry width="50" height="50" relative="1" as="geometry">
            <mxPoint x="390" y="330" as="sourcePoint" />
            <mxPoint x="440" y="280" as="targetPoint" />
          </mxGeometry>
        </mxCell>
        <mxCell id="8TtQOPB3-Rzr3YMKRfKf-69" value="Price&lt;div&gt;&lt;br&gt;&lt;/div&gt;" style="ellipse;whiteSpace=wrap;html=1;" vertex="1" parent="1">
          <mxGeometry x="170" y="1270" width="120" height="80" as="geometry" />
        </mxCell>
        <mxCell id="8TtQOPB3-Rzr3YMKRfKf-70" value="" style="endArrow=classic;html=1;rounded=0;exitX=0.66;exitY=0.975;exitDx=0;exitDy=0;entryX=0.417;entryY=0;entryDx=0;entryDy=0;entryPerimeter=0;exitPerimeter=0;" edge="1" parent="1" source="8TtQOPB3-Rzr3YMKRfKf-44" target="8TtQOPB3-Rzr3YMKRfKf-69">
          <mxGeometry width="50" height="50" relative="1" as="geometry">
            <mxPoint x="500" y="1130" as="sourcePoint" />
            <mxPoint x="550" y="1080" as="targetPoint" />
          </mxGeometry>
        </mxCell>
        <mxCell id="8TtQOPB3-Rzr3YMKRfKf-71" value="Comment" style="ellipse;whiteSpace=wrap;html=1;" vertex="1" parent="1">
          <mxGeometry x="1240" y="1110" width="120" height="80" as="geometry" />
        </mxCell>
        <mxCell id="8TtQOPB3-Rzr3YMKRfKf-72" value="" style="endArrow=classic;html=1;rounded=0;entryX=0.05;entryY=0.35;entryDx=0;entryDy=0;entryPerimeter=0;exitX=1;exitY=1;exitDx=0;exitDy=0;" edge="1" parent="1" source="8TtQOPB3-Rzr3YMKRfKf-53" target="8TtQOPB3-Rzr3YMKRfKf-71">
          <mxGeometry width="50" height="50" relative="1" as="geometry">
            <mxPoint x="710" y="1130" as="sourcePoint" />
            <mxPoint x="760" y="1080" as="targetPoint" />
          </mxGeometry>
        </mxCell>
        <mxCell id="8TtQOPB3-Rzr3YMKRfKf-73" value="Favorite" style="rounded=0;whiteSpace=wrap;html=1;" vertex="1" parent="1">
          <mxGeometry x="414" y="870" width="150" height="80" as="geometry" />
        </mxCell>
        <mxCell id="8TtQOPB3-Rzr3YMKRfKf-74" value="RewiewID" style="ellipse;whiteSpace=wrap;html=1;" vertex="1" parent="1">
          <mxGeometry x="330" y="1280" width="120" height="80" as="geometry" />
        </mxCell>
        <mxCell id="8TtQOPB3-Rzr3YMKRfKf-75" value="" style="endArrow=classic;html=1;rounded=0;entryX=0.5;entryY=0;entryDx=0;entryDy=0;" edge="1" parent="1" source="8TtQOPB3-Rzr3YMKRfKf-73" target="8TtQOPB3-Rzr3YMKRfKf-74">
          <mxGeometry width="50" height="50" relative="1" as="geometry">
            <mxPoint x="709" y="1760" as="sourcePoint" />
            <mxPoint x="759" y="1710" as="targetPoint" />
          </mxGeometry>
        </mxCell>
        <mxCell id="8TtQOPB3-Rzr3YMKRfKf-76" value="ProductID" style="ellipse;whiteSpace=wrap;html=1;" vertex="1" parent="1">
          <mxGeometry x="707" y="1270" width="120" height="80" as="geometry" />
        </mxCell>
        <mxCell id="8TtQOPB3-Rzr3YMKRfKf-77" value="" style="endArrow=classic;html=1;rounded=0;entryX=0.008;entryY=0.588;entryDx=0;entryDy=0;entryPerimeter=0;exitX=1;exitY=0.75;exitDx=0;exitDy=0;" edge="1" parent="1" source="8TtQOPB3-Rzr3YMKRfKf-73" target="8TtQOPB3-Rzr3YMKRfKf-76">
          <mxGeometry width="50" height="50" relative="1" as="geometry">
            <mxPoint x="39" y="1790" as="sourcePoint" />
            <mxPoint x="89" y="1740" as="targetPoint" />
          </mxGeometry>
        </mxCell>
        <mxCell id="8TtQOPB3-Rzr3YMKRfKf-78" value="FavoriteID" style="ellipse;whiteSpace=wrap;html=1;" vertex="1" parent="1">
          <mxGeometry x="515" y="1320" width="120" height="80" as="geometry" />
        </mxCell>
        <mxCell id="8TtQOPB3-Rzr3YMKRfKf-79" value="" style="endArrow=classic;html=1;rounded=0;entryX=0.05;entryY=0.35;entryDx=0;entryDy=0;entryPerimeter=0;exitX=1;exitY=1;exitDx=0;exitDy=0;" edge="1" parent="1" source="8TtQOPB3-Rzr3YMKRfKf-73" target="8TtQOPB3-Rzr3YMKRfKf-78">
          <mxGeometry width="50" height="50" relative="1" as="geometry">
            <mxPoint x="109" y="1570" as="sourcePoint" />
            <mxPoint x="159" y="1520" as="targetPoint" />
          </mxGeometry>
        </mxCell>
        <mxCell id="8TtQOPB3-Rzr3YMKRfKf-80" value="" style="endArrow=classic;html=1;rounded=0;entryX=0.8;entryY=0.85;entryDx=0;entryDy=0;exitX=1;exitY=0.5;exitDx=0;exitDy=0;entryPerimeter=0;" edge="1" parent="1" source="8TtQOPB3-Rzr3YMKRfKf-1" target="8TtQOPB3-Rzr3YMKRfKf-7">
          <mxGeometry width="50" height="50" relative="1" as="geometry">
            <mxPoint x="500" y="430" as="sourcePoint" />
            <mxPoint x="410" y="200" as="targetPoint" />
          </mxGeometry>
        </mxCell>
        <mxCell id="8TtQOPB3-Rzr3YMKRfKf-81" value="" style="endArrow=classic;html=1;rounded=0;entryX=0.5;entryY=1;entryDx=0;entryDy=0;exitX=0.687;exitY=0.038;exitDx=0;exitDy=0;exitPerimeter=0;" edge="1" parent="1" source="8TtQOPB3-Rzr3YMKRfKf-1" target="8TtQOPB3-Rzr3YMKRfKf-6">
          <mxGeometry width="50" height="50" relative="1" as="geometry">
            <mxPoint x="500" y="430" as="sourcePoint" />
            <mxPoint x="550" y="380" as="targetPoint" />
          </mxGeometry>
        </mxCell>
        <mxCell id="8TtQOPB3-Rzr3YMKRfKf-82" value="" style="endArrow=classic;html=1;rounded=0;entryX=1;entryY=1;entryDx=0;entryDy=0;exitX=0;exitY=0.625;exitDx=0;exitDy=0;exitPerimeter=0;" edge="1" parent="1" source="8TtQOPB3-Rzr3YMKRfKf-1" target="8TtQOPB3-Rzr3YMKRfKf-8">
          <mxGeometry width="50" height="50" relative="1" as="geometry">
            <mxPoint x="500" y="430" as="sourcePoint" />
            <mxPoint x="550" y="380" as="targetPoint" />
          </mxGeometry>
        </mxCell>
        <mxCell id="8TtQOPB3-Rzr3YMKRfKf-83" value="" style="endArrow=classic;html=1;rounded=0;entryX=0.642;entryY=0.963;entryDx=0;entryDy=0;entryPerimeter=0;exitX=0.047;exitY=1.063;exitDx=0;exitDy=0;exitPerimeter=0;" edge="1" parent="1" source="8TtQOPB3-Rzr3YMKRfKf-1" target="8TtQOPB3-Rzr3YMKRfKf-63">
          <mxGeometry width="50" height="50" relative="1" as="geometry">
            <mxPoint x="500" y="430" as="sourcePoint" />
            <mxPoint x="550" y="380" as="targetPoint" />
          </mxGeometry>
        </mxCell>
        <mxCell id="8TtQOPB3-Rzr3YMKRfKf-93" style="edgeStyle=orthogonalEdgeStyle;rounded=0;orthogonalLoop=1;jettySize=auto;html=1;exitX=1;exitY=0.5;exitDx=0;exitDy=0;entryX=1;entryY=0.5;entryDx=0;entryDy=0;fillColor=#dae8fc;strokeColor=#6c8ebf;" edge="1" parent="1" source="8TtQOPB3-Rzr3YMKRfKf-91" target="8TtQOPB3-Rzr3YMKRfKf-24">
          <mxGeometry relative="1" as="geometry" />
        </mxCell>
        <mxCell id="8TtQOPB3-Rzr3YMKRfKf-91" value="" style="triangle;whiteSpace=wrap;html=1;rotation=130;fillColor=#dae8fc;strokeColor=#6c8ebf;" vertex="1" parent="1">
          <mxGeometry x="260" y="500" width="60" height="80" as="geometry" />
        </mxCell>
        <mxCell id="8TtQOPB3-Rzr3YMKRfKf-94" value="1" style="text;html=1;align=center;verticalAlign=middle;whiteSpace=wrap;rounded=0;" vertex="1" parent="1">
          <mxGeometry x="300" y="470" width="60" height="30" as="geometry" />
        </mxCell>
        <mxCell id="8TtQOPB3-Rzr3YMKRfKf-95" value="M" style="text;html=1;align=center;verticalAlign=middle;whiteSpace=wrap;rounded=0;" vertex="1" parent="1">
          <mxGeometry x="245" y="590" width="60" height="30" as="geometry" />
        </mxCell>
        <mxCell id="8TtQOPB3-Rzr3YMKRfKf-99" style="edgeStyle=orthogonalEdgeStyle;rounded=0;orthogonalLoop=1;jettySize=auto;html=1;exitX=1;exitY=0.5;exitDx=0;exitDy=0;fillColor=#dae8fc;strokeColor=#6c8ebf;" edge="1" parent="1" source="8TtQOPB3-Rzr3YMKRfKf-97" target="8TtQOPB3-Rzr3YMKRfKf-44">
          <mxGeometry relative="1" as="geometry" />
        </mxCell>
        <mxCell id="8TtQOPB3-Rzr3YMKRfKf-97" value="" style="triangle;whiteSpace=wrap;html=1;rotation=90;fillColor=#dae8fc;strokeColor=#6c8ebf;" vertex="1" parent="1">
          <mxGeometry x="190" y="720" width="60" height="80" as="geometry" />
        </mxCell>
        <mxCell id="8TtQOPB3-Rzr3YMKRfKf-100" value="1" style="text;html=1;align=center;verticalAlign=middle;whiteSpace=wrap;rounded=0;" vertex="1" parent="1">
          <mxGeometry x="200" y="800" width="60" height="30" as="geometry" />
        </mxCell>
        <mxCell id="8TtQOPB3-Rzr3YMKRfKf-101" value="M" style="text;html=1;align=center;verticalAlign=middle;whiteSpace=wrap;rounded=0;" vertex="1" parent="1">
          <mxGeometry x="185" y="680" width="60" height="30" as="geometry" />
        </mxCell>
        <mxCell id="8TtQOPB3-Rzr3YMKRfKf-106" style="edgeStyle=orthogonalEdgeStyle;rounded=0;orthogonalLoop=1;jettySize=auto;html=1;exitX=1;exitY=0.5;exitDx=0;exitDy=0;fillColor=#dae8fc;strokeColor=#6c8ebf;" edge="1" parent="1" source="8TtQOPB3-Rzr3YMKRfKf-104" target="8TtQOPB3-Rzr3YMKRfKf-14">
          <mxGeometry relative="1" as="geometry" />
        </mxCell>
        <mxCell id="8TtQOPB3-Rzr3YMKRfKf-104" value="" style="triangle;whiteSpace=wrap;html=1;rotation=-120;fillColor=#dae8fc;strokeColor=#6c8ebf;" vertex="1" parent="1">
          <mxGeometry x="684" y="490" width="60" height="80" as="geometry" />
        </mxCell>
        <mxCell id="8TtQOPB3-Rzr3YMKRfKf-107" value="M" style="text;html=1;align=center;verticalAlign=middle;whiteSpace=wrap;rounded=0;" vertex="1" parent="1">
          <mxGeometry x="670" y="470" width="60" height="30" as="geometry" />
        </mxCell>
        <mxCell id="8TtQOPB3-Rzr3YMKRfKf-108" value="1" style="text;html=1;align=center;verticalAlign=middle;whiteSpace=wrap;rounded=0;" vertex="1" parent="1">
          <mxGeometry x="730" y="550" width="60" height="30" as="geometry" />
        </mxCell>
        <mxCell id="8TtQOPB3-Rzr3YMKRfKf-110" value="" style="triangle;whiteSpace=wrap;html=1;rotation=-65;fillColor=#dae8fc;strokeColor=#6c8ebf;" vertex="1" parent="1">
          <mxGeometry x="450" y="610" width="60" height="80" as="geometry" />
        </mxCell>
        <mxCell id="8TtQOPB3-Rzr3YMKRfKf-111" value="" style="endArrow=classic;html=1;rounded=0;entryX=0.057;entryY=0.379;entryDx=0;entryDy=0;entryPerimeter=0;fillColor=#dae8fc;strokeColor=#6c8ebf;" edge="1" parent="1" target="8TtQOPB3-Rzr3YMKRfKf-110">
          <mxGeometry width="50" height="50" relative="1" as="geometry">
            <mxPoint x="230" y="840" as="sourcePoint" />
            <mxPoint x="460" y="710" as="targetPoint" />
          </mxGeometry>
        </mxCell>
        <mxCell id="8TtQOPB3-Rzr3YMKRfKf-112" value="" style="endArrow=classic;html=1;rounded=0;entryX=0.167;entryY=0.975;entryDx=0;entryDy=0;entryPerimeter=0;fillColor=#dae8fc;strokeColor=#6c8ebf;" edge="1" parent="1" source="8TtQOPB3-Rzr3YMKRfKf-110" target="8TtQOPB3-Rzr3YMKRfKf-14">
          <mxGeometry width="50" height="50" relative="1" as="geometry">
            <mxPoint x="410" y="760" as="sourcePoint" />
            <mxPoint x="460" y="710" as="targetPoint" />
          </mxGeometry>
        </mxCell>
        <mxCell id="8TtQOPB3-Rzr3YMKRfKf-113" value="M" style="text;html=1;align=center;verticalAlign=middle;whiteSpace=wrap;rounded=0;" vertex="1" parent="1">
          <mxGeometry x="320" y="735" width="60" height="30" as="geometry" />
        </mxCell>
        <mxCell id="8TtQOPB3-Rzr3YMKRfKf-114" value="1" style="text;html=1;align=center;verticalAlign=middle;whiteSpace=wrap;rounded=0;" vertex="1" parent="1">
          <mxGeometry x="504" y="505" width="60" height="30" as="geometry" />
        </mxCell>
        <mxCell id="8TtQOPB3-Rzr3YMKRfKf-117" value="" style="triangle;whiteSpace=wrap;html=1;rotation=64;fillColor=#dae8fc;strokeColor=#6c8ebf;" vertex="1" parent="1">
          <mxGeometry x="635" y="655" width="60" height="80" as="geometry" />
        </mxCell>
        <mxCell id="8TtQOPB3-Rzr3YMKRfKf-118" value="" style="endArrow=classic;html=1;rounded=0;entryX=0.25;entryY=0;entryDx=0;entryDy=0;exitX=1;exitY=0.5;exitDx=0;exitDy=0;fillColor=#fff2cc;strokeColor=#d6b656;" edge="1" parent="1" source="8TtQOPB3-Rzr3YMKRfKf-117" target="8TtQOPB3-Rzr3YMKRfKf-53">
          <mxGeometry width="50" height="50" relative="1" as="geometry">
            <mxPoint x="220" y="760" as="sourcePoint" />
            <mxPoint x="270" y="710" as="targetPoint" />
          </mxGeometry>
        </mxCell>
        <mxCell id="8TtQOPB3-Rzr3YMKRfKf-119" value="" style="endArrow=classic;html=1;rounded=0;fillColor=#e1d5e7;strokeColor=#9673a6;" edge="1" parent="1">
          <mxGeometry width="50" height="50" relative="1" as="geometry">
            <mxPoint x="570" y="460" as="sourcePoint" />
            <mxPoint x="640" y="670" as="targetPoint" />
          </mxGeometry>
        </mxCell>
        <mxCell id="8TtQOPB3-Rzr3YMKRfKf-120" value="" style="endArrow=classic;html=1;rounded=0;entryX=-0.016;entryY=0.923;entryDx=0;entryDy=0;fillColor=#fff2cc;strokeColor=#d6b656;exitX=1;exitY=0.5;exitDx=0;exitDy=0;entryPerimeter=0;" edge="1" parent="1" target="8TtQOPB3-Rzr3YMKRfKf-117">
          <mxGeometry width="50" height="50" relative="1" as="geometry">
            <mxPoint x="401.13" y="450" as="sourcePoint" />
            <mxPoint x="635.0029846703445" y="696.8036015468065" as="targetPoint" />
          </mxGeometry>
        </mxCell>
        <mxCell id="8TtQOPB3-Rzr3YMKRfKf-121" value="" style="endArrow=classic;html=1;rounded=0;fillColor=#d5e8d4;strokeColor=#82b366;exitX=0;exitY=0;exitDx=0;exitDy=0;" edge="1" parent="1" source="8TtQOPB3-Rzr3YMKRfKf-73">
          <mxGeometry width="50" height="50" relative="1" as="geometry">
            <mxPoint x="500" y="810" as="sourcePoint" />
            <mxPoint x="430" y="480" as="targetPoint" />
          </mxGeometry>
        </mxCell>
        <mxCell id="8TtQOPB3-Rzr3YMKRfKf-122" value="M" style="text;html=1;align=center;verticalAlign=middle;whiteSpace=wrap;rounded=0;" vertex="1" parent="1">
          <mxGeometry x="384" y="810" width="60" height="30" as="geometry" />
        </mxCell>
        <mxCell id="8TtQOPB3-Rzr3YMKRfKf-125" style="edgeStyle=orthogonalEdgeStyle;rounded=0;orthogonalLoop=1;jettySize=auto;html=1;exitX=0;exitY=0.75;exitDx=0;exitDy=0;entryX=0.44;entryY=0.013;entryDx=0;entryDy=0;entryPerimeter=0;fillColor=#dae8fc;strokeColor=#6c8ebf;" edge="1" parent="1" source="8TtQOPB3-Rzr3YMKRfKf-110" target="8TtQOPB3-Rzr3YMKRfKf-73">
          <mxGeometry relative="1" as="geometry" />
        </mxCell>
        <mxCell id="8TtQOPB3-Rzr3YMKRfKf-126" value="M" style="text;html=1;align=center;verticalAlign=middle;whiteSpace=wrap;rounded=0;" vertex="1" parent="1">
          <mxGeometry x="450" y="760" width="60" height="30" as="geometry" />
        </mxCell>
        <mxCell id="8TtQOPB3-Rzr3YMKRfKf-127" value="1" style="text;html=1;align=center;verticalAlign=middle;whiteSpace=wrap;rounded=0;" vertex="1" parent="1">
          <mxGeometry x="590" y="565" width="60" height="30" as="geometry" />
        </mxCell>
        <mxCell id="8TtQOPB3-Rzr3YMKRfKf-128" value="Text" style="text;html=1;align=center;verticalAlign=middle;whiteSpace=wrap;rounded=0;" vertex="1" parent="1">
          <mxGeometry x="210" y="720" width="60" height="30" as="geometry" />
        </mxCell>
        <mxCell id="8TtQOPB3-Rzr3YMKRfKf-129" value="M" style="text;html=1;align=center;verticalAlign=middle;whiteSpace=wrap;rounded=0;" vertex="1" parent="1">
          <mxGeometry x="690" y="760" width="60" height="30" as="geometry" />
        </mxCell>
        <mxCell id="8TtQOPB3-Rzr3YMKRfKf-130" value="1" style="text;html=1;align=center;verticalAlign=middle;whiteSpace=wrap;rounded=0;" vertex="1" parent="1">
          <mxGeometry x="520" y="590" width="60" height="30" as="geometry" />
        </mxCell>
      </root>
    </mxGraphModel>
  </diagram>
</mxfile>
